<svg xmlns="http://www.w3.org/2000/svg" version="1.1" xmlns:xlink="http://www.w3.org/1999/xlink" xmlns:svgjs="http://svgjs.dev/svgjs" width="1000" height="434" viewBox="0 0 1000 434"><g transform="matrix(1,0,0,1,-0.6060606060606233,-0.61213670162158)"><svg viewBox="0 0 396 172" data-background-color="#000000" preserveAspectRatio="xMidYMid meet" height="434" width="1000" xmlns="http://www.w3.org/2000/svg" xmlns:xlink="http://www.w3.org/1999/xlink"><g id="tight-bounds" transform="matrix(1,0,0,1,0.2400000000000091,0.24259795548135799)"><svg viewBox="0 0 395.52 171.51480408903728" height="171.51480408903728" width="395.52"><g><svg viewBox="0 0 395.52 171.51480408903728" height="171.51480408903728" width="395.52"><g transform="matrix(1,0,0,1,0,87.52421468339138)"><svg viewBox="0 0 395.52 83.99058940564592" height="83.99058940564592" width="395.52"><g id="textblocktransform"><svg viewBox="0 0 395.52 83.99058940564592" height="83.99058940564592" width="395.52" id="textblock"><g><svg viewBox="0 0 395.52 60.07557648862896" height="60.07557648862896" width="395.52"><g transform="matrix(1,0,0,1,0,0)"><svg width="395.52" viewBox="3.537630081176758 -20.896358489990234 325.7173767089844 49.473243713378906" height="60.07557648862896" data-palette-color="#ffffff"><path d="M30.362-10.326l-9.149-1.495-4.57 27.979-8.083-1.32 4.57-27.979-9.592-1.567 1.011-6.188 27.663 4.519zM36.129-15.871l22.283 2.975-0.793 5.938-7.087-0.947-2.992 22.412 7.087 0.946-0.797 5.967-22.282-2.975 0.796-5.967 7.078 0.945 2.992-22.411-7.077-0.945zM88.946-3.609l-9.226-0.903-2.761 28.215-8.152-0.798 2.762-28.215-9.673-0.947 0.61-6.24 27.897 2.731zM110.066 26.164l-1.351-7.572-10.119-0.646-2.292 7.339-8.553-0.546 12.774-33.875 9.92 0.633 8.363 35.225zM104.99-2.949l-4.719 15.05 7.475 0.477zM145.955 27.678l-9.933-0.348-8.141-28.151c0.087 0.75 0.185 1.657 0.295 2.722 0.103 1.064 0.198 2.242 0.286 3.532 0.088 1.297 0.147 2.67 0.177 4.118 0.036 1.449 0.027 2.933-0.026 4.452v0l-0.457 13.052-6.965-0.243 1.21-34.599 10.204 0.357 7.876 27.992c-0.15-1.053-0.296-2.312-0.438-3.777-0.136-1.459-0.239-3.09-0.309-4.894-0.07-1.804-0.069-3.738 0.002-5.804v0l0.464-13.252 6.966 0.244zM168.721-6.883l8.22 0.019-0.051 23.03c-0.005 2.367-0.49 4.486-1.455 6.357-0.964 1.871-2.401 3.348-4.31 4.43-1.909 1.089-4.294 1.63-7.153 1.624v0c-2.88-0.006-5.272-0.535-7.177-1.586-1.904-1.058-3.331-2.521-4.28-4.39-0.942-1.862-1.411-4.027-1.405-6.493v0l0.052-23.03 8.22 0.018-0.045 19.98c-0.007 3.113 0.271 5.457 0.834 7.032 0.556 1.575 1.828 2.364 3.814 2.369v0c1.98 0.004 3.255-0.779 3.826-2.352 0.57-1.572 0.859-3.915 0.865-7.028v0zM197.04-7.502l8.416-0.263 3.031 34.543-7.137 0.223-0.892-14.79c-0.077-1.385-0.128-2.617-0.156-3.697-0.02-1.08-0.029-2.1-0.025-3.06 0.003-0.961 0.026-1.928 0.069-2.904 0.043-0.975 0.09-2.037 0.14-3.186v0l-3.218 21.871-6.197 0.194-4.868-21.618c0.134 1.096 0.253 2.13 0.357 3.1 0.104 0.971 0.188 1.945 0.252 2.924 0.064 0.985 0.124 2.037 0.179 3.155 0.049 1.126 0.078 2.379 0.087 3.76v0l0.209 14.69-7.017 0.219 0.868-34.664 8.416-0.263 4.547 22.249zM256.382 24.044v0c-3.265 0.311-6.082-0.12-8.451-1.294-2.368-1.167-4.258-3.043-5.67-5.627-1.412-2.584-2.306-5.851-2.683-9.799v0c-0.28-2.933-0.115-5.561 0.494-7.883 0.608-2.328 1.57-4.319 2.887-5.971 1.308-1.658 2.898-2.969 4.768-3.93 1.864-0.961 3.914-1.549 6.151-1.762v0c2.522-0.24 4.679-0.054 6.472 0.558 1.8 0.612 3.434 1.494 4.903 2.646v0l-3.859 4.829c-1.131-0.83-2.198-1.421-3.203-1.774-1.005-0.353-2.121-0.471-3.349-0.354v0c-1.161 0.111-2.205 0.438-3.131 0.982-0.925 0.55-1.703 1.344-2.334 2.382-0.624 1.037-1.063 2.341-1.314 3.912-0.252 1.571-0.275 3.442-0.068 5.612v0c0.287 3.006 0.757 5.372 1.41 7.098 0.66 1.725 1.525 2.925 2.594 3.6 1.069 0.675 2.367 0.94 3.893 0.794v0c0.81-0.077 1.561-0.243 2.253-0.496 0.698-0.261 1.338-0.576 1.919-0.946v0l-0.752-7.884-4.321 0.412-1.342-5.648 12.832-1.224 1.634 17.132c-1.624 1.226-3.398 2.249-5.323 3.069-1.918 0.819-4.054 1.341-6.41 1.566zM296.056-16.441l-8.411 22.904 1.673 12.882-8.122 1.055-1.666-12.833-13.988-20.045 8.895-1.155 8.436 13.939 4.644-15.638zM313.503-19.265l8.313-1.341 7.439 33.867-7.049 1.137-2.783-14.552c-0.254-1.364-0.463-2.579-0.629-3.647-0.159-1.068-0.298-2.079-0.418-3.032-0.12-0.953-0.221-1.916-0.304-2.888-0.083-0.973-0.172-2.032-0.27-3.178v0l-0.384 22.104-6.121 0.987-7.602-20.815c0.274 1.07 0.525 2.08 0.752 3.029 0.227 0.949 0.436 1.905 0.624 2.867 0.19 0.969 0.384 2.004 0.583 3.107 0.193 1.11 0.382 2.349 0.569 3.717v0l2.093 14.542-6.931 1.118-3.588-34.488 8.312-1.341 7.365 21.481z" opacity="1" transform="matrix(1,0,0,1,0,0)" fill="#ffffff" class="wordmark-text-0" data-fill-palette-color="primary" id="text-0"></path></svg></g></svg></g><g transform="matrix(1,0,0,1,118.31980799999998,77.74370287735623)"><svg viewBox="0 0 158.88038400000002 6.2468865282896875" height="6.2468865282896875" width="158.88038400000002"><g transform="matrix(1,0,0,1,0,0)"><svg width="158.88038400000002" viewBox="3.9800000190734863 -40.5 1359.1300048828125 53.44000244140625" height="6.2468865282896875" data-palette-color="#ffffff"><path d="M3.98-16.21L3.98-38.16 11.72-38.16 11.72-17.14Q11.72-14.55 12.43-12.54 13.13-10.52 14.54-9.13 15.94-7.74 18.02-7.02 20.09-6.3 22.85-6.3L22.85-6.3Q25.59-6.3 27.67-7.02 29.76-7.74 31.16-9.13 32.57-10.52 33.28-12.54 33.98-14.55 33.98-17.14L33.98-17.14 33.98-38.16 41.72-38.16 41.72-16.21Q41.72-12.45 40.45-9.38 39.18-6.3 36.77-4.1 34.35-1.9 30.85-0.71 27.34 0.49 22.85 0.49L22.85 0.49Q18.36 0.49 14.86-0.71 11.35-1.9 8.94-4.1 6.52-6.3 5.25-9.38 3.98-12.45 3.98-16.21L3.98-16.21ZM50.24 0L50.24-28.81 57.47-28.81 57.47-26.37Q60.35-28 62.97-28.66 65.6-29.32 68.11-29.32L68.11-29.32Q71.41-29.32 74.22-28.36 77.02-27.39 79.07-25.49 81.13-23.58 82.29-20.74 83.44-17.9 83.44-14.16L83.44-14.16 83.44 0 76.24 0 76.24-12.99Q76.24-15.36 75.57-17.22 74.9-19.09 73.64-20.37 72.39-21.66 70.59-22.33 68.8-23 66.57-23L66.57-23Q65.4-23 64.17-22.75 62.94-22.51 61.75-22.06 60.57-21.61 59.47-20.94 58.37-20.26 57.47-19.41L57.47-19.41 57.47 0 50.24 0ZM92.5 0L92.5-40.5 99.73-40.5 99.73 0 92.5 0ZM107.61-14.5L107.61-14.5Q107.61-17.43 108.81-20.1 110-22.78 112.25-24.83 114.49-26.88 117.75-28.1 121.01-29.32 125.16-29.32L125.16-29.32Q129.29-29.32 132.6-28.09 135.91-26.86 138.21-24.71 140.52-22.56 141.75-19.65 142.99-16.75 142.99-13.43L142.99-13.43Q142.99-13.01 142.97-12.54 142.96-12.06 142.91-11.67L142.91-11.67 115.67-11.67Q116.13-10.38 117.17-9.3 118.21-8.23 119.77-7.45 121.33-6.67 123.38-6.24 125.43-5.81 127.92-5.81L127.92-5.81Q130.41-5.81 132.88-6.34 135.34-6.86 137.59-7.67L137.59-7.67 140.03-2.15Q138.62-1.49 137.16-0.99 135.71-0.49 134.14-0.16 132.56 0.17 130.84 0.34 129.12 0.51 127.21 0.51L127.21 0.51Q122.36 0.51 118.69-0.66 115.03-1.83 112.57-3.86 110.1-5.88 108.85-8.62 107.61-11.35 107.61-14.5ZM115.67-17.31L135.32-17.31Q134.93-18.51 134.11-19.54 133.29-20.58 132.07-21.35 130.85-22.12 129.24-22.56 127.63-23 125.7-23L125.7-23Q123.65-23 121.97-22.53 120.28-22.07 119.01-21.29 117.74-20.51 116.9-19.48 116.06-18.46 115.67-17.31L115.67-17.31ZM149.38-9.08L149.38-9.08Q149.38-11.16 150.28-12.87 151.19-14.58 152.99-15.81 154.8-17.04 157.5-17.71 160.2-18.38 163.78-18.38L163.78-18.38Q166.45-18.38 169.39-17.99 172.33-17.6 175.45-16.8L175.45-16.8Q175.33-18.16 174.62-19.32 173.92-20.48 172.66-21.33 171.4-22.17 169.63-22.63 167.86-23.1 165.62-23.1L165.62-23.1Q164.39-23.1 162.93-22.95 161.46-22.8 159.9-22.51 158.34-22.22 156.81-21.78 155.29-21.34 153.97-20.73L153.97-20.73 151.77-26.66Q153.41-27.25 155.28-27.73 157.14-28.22 159.1-28.58 161.05-28.93 163-29.13 164.96-29.32 166.79-29.32L166.79-29.32Q174.87-29.32 178.8-25.2 182.73-21.07 182.73-12.55L182.73-12.55 182.73 0 175.5 0 175.5-2.71Q174.38-2.05 173.05-1.46 171.72-0.88 170.16-0.44 168.59 0 166.8 0.26 165 0.51 163 0.51L163 0.51Q159.63 0.51 157.08-0.22 154.53-0.95 152.82-2.25 151.11-3.54 150.25-5.29 149.38-7.03 149.38-9.08ZM157-9.33L157-9.33Q157-8.62 157.36-7.97 157.73-7.32 158.53-6.82 159.34-6.32 160.6-6.02 161.86-5.71 163.64-5.71L163.64-5.71Q165.54-5.71 167.32-6.05 169.11-6.4 170.64-6.96 172.18-7.52 173.43-8.25 174.67-8.98 175.5-9.77L175.5-9.77 175.5-11.04Q173.84-11.5 172.22-11.82 170.6-12.13 169.12-12.32 167.64-12.5 166.34-12.57 165.03-12.65 164.05-12.65L164.05-12.65Q162.03-12.65 160.68-12.38 159.34-12.11 158.51-11.66 157.68-11.21 157.34-10.6 157-9.99 157-9.33ZM190.3-3.37L193.42-8.84Q196.35-7.08 199.87-6.25 203.38-5.42 207.07-5.42L207.07-5.42Q209.56-5.42 211.22-5.76 212.88-6.1 213.88-6.64 214.88-7.18 215.3-7.86 215.71-8.54 215.71-9.25L215.71-9.25Q215.71-10.28 214.82-11.01 213.93-11.74 211.88-11.74L211.88-11.74Q210.93-11.74 209.83-11.62 208.73-11.5 207.52-11.36 206.31-11.23 205-11.11 203.7-10.99 202.36-10.99L202.36-10.99Q199.43-10.99 197.36-11.62 195.3-12.26 194.01-13.35 192.71-14.45 192.13-15.95 191.54-17.46 191.54-19.19L191.54-19.19Q191.54-21.39 192.57-23.24 193.59-25.1 195.5-26.45 197.4-27.81 200.1-28.56 202.8-29.32 206.12-29.32L206.12-29.32Q207.85-29.32 209.74-29.11 211.63-28.91 213.46-28.56 215.3-28.22 216.98-27.77 218.66-27.32 219.96-26.81L219.96-26.81 217.69-21.19Q214.93-22.22 212.18-22.81 209.44-23.41 206.53-23.41L206.53-23.41Q204.5-23.41 203.1-23.11 201.7-22.8 200.82-22.3 199.94-21.8 199.54-21.15 199.13-20.51 199.13-19.8L199.13-19.8Q199.13-19.29 199.34-18.87 199.55-18.46 200.02-18.15 200.5-17.85 201.27-17.69 202.04-17.53 203.16-17.53L203.16-17.53Q204.19-17.53 205.33-17.65 206.48-17.77 207.73-17.91 208.97-18.04 210.3-18.16 211.63-18.29 213.02-18.29L213.02-18.29Q215.61-18.29 217.55-17.68 219.49-17.07 220.76-15.97 222.03-14.87 222.67-13.38 223.3-11.89 223.3-10.13L223.3-10.13Q223.3-7.86 222.25-5.91 221.2-3.96 219.13-2.53 217.05-1.1 213.96-0.29 210.88 0.51 206.82 0.51L206.82 0.51Q204.33 0.51 202.01 0.21 199.69-0.1 197.59-0.62 195.5-1.15 193.65-1.86 191.81-2.56 190.3-3.37L190.3-3.37ZM229.79 0L229.79-40.48 237.02-40.48 237.02-26.61Q239.29-27.86 242.09-28.59 244.88-29.32 247.96-29.32L247.96-29.32Q251.52-29.32 254.37-28.27 257.21-27.22 259.19-25.26 261.17-23.29 262.23-20.48 263.29-17.68 263.29-14.16L263.29-14.16 263.29 0 256.09 0 256.09-13.87Q256.09-15.92 255.43-17.61 254.77-19.31 253.5-20.53 252.23-21.75 250.41-22.42 248.59-23.1 246.3-23.1L246.3-23.1Q243.54-23.1 241.17-22.22 238.8-21.34 237.02-20L237.02-20 237.02 0 229.79 0ZM300.57 0L300.57-9.45 283.89-38.16 292.66-38.16 304.4-16.46 316-38.16 324.76-38.16 308.31-9.5 308.31 0 300.57 0ZM327.98-14.4L327.98-14.4Q327.98-17.5 329.24-20.21 330.5-22.92 332.83-24.95 335.16-26.98 338.47-28.15 341.77-29.32 345.9-29.32L345.9-29.32Q350.03-29.32 353.33-28.15 356.64-26.98 358.97-24.95 361.31-22.92 362.56-20.21 363.82-17.5 363.82-14.4L363.82-14.4Q363.82-11.3 362.56-8.59 361.31-5.88 358.97-3.86 356.64-1.83 353.33-0.66 350.03 0.51 345.9 0.51L345.9 0.51Q341.77 0.51 338.47-0.66 335.16-1.83 332.83-3.86 330.5-5.88 329.24-8.59 327.98-11.3 327.98-14.4ZM335.57-14.4L335.57-14.4Q335.57-12.67 336.27-11.12 336.96-9.57 338.3-8.39 339.63-7.2 341.54-6.51 343.46-5.81 345.9-5.81L345.9-5.81Q348.34-5.81 350.26-6.51 352.17-7.2 353.51-8.39 354.84-9.57 355.53-11.12 356.23-12.67 356.23-14.4L356.23-14.4Q356.23-16.14 355.53-17.7 354.84-19.26 353.51-20.45 352.17-21.63 350.26-22.33 348.34-23.02 345.9-23.02L345.9-23.02Q343.46-23.02 341.54-22.33 339.63-21.63 338.3-20.45 336.96-19.26 336.27-17.7 335.57-16.14 335.57-14.4ZM371.12-13.75L371.12-28.83 378.32-28.83 378.32-14.77Q378.32-12.77 378.76-11.12 379.2-9.47 380.26-8.3 381.32-7.13 383.09-6.48 384.86-5.83 387.5-5.83L387.5-5.83Q388.74-5.83 390.03-6.1 391.31-6.37 392.48-6.85 393.65-7.32 394.66-7.98 395.68-8.64 396.41-9.42L396.41-9.42 396.41-28.83 403.64-28.83 403.64 0 396.41 0 396.41-2.47Q393.75-0.88 391.06-0.2 388.38 0.49 385.96 0.49L385.96 0.49Q382.01 0.49 379.19-0.46 376.37-1.42 374.57-3.23 372.78-5.05 371.95-7.7 371.12-10.35 371.12-13.75L371.12-13.75ZM412.81 0L412.81-28.81 420.04-28.81 420.04-24.66Q422.43-26.44 425.09-27.73 427.76-29.03 430.39-29.71L430.39-29.71 432.52-23.1Q428.34-22.68 425.18-21.23 422.02-19.78 420.04-17.14L420.04-17.14 420.04 0 412.81 0ZM453.04-5.08L457.17-11.35Q459.24-10.18 461.38-9.24 463.52-8.3 465.81-7.65 468.11-7.01 470.63-6.67 473.16-6.32 476.02-6.32L476.02-6.32Q479.46-6.32 481.88-6.77 484.29-7.23 485.82-8.02 487.35-8.81 488.04-9.91 488.74-11.01 488.74-12.3L488.74-12.3Q488.74-14.38 487-15.59 485.27-16.8 481.66-16.8L481.66-16.8Q480.07-16.8 478.31-16.59 476.55-16.38 474.76-16.14 472.97-15.89 471.22-15.69 469.47-15.48 467.94-15.48L467.94-15.48Q465.37-15.48 463.02-16.14 460.66-16.8 458.84-18.12 457.02-19.43 455.95-21.41 454.87-23.39 454.87-26.03L454.87-26.03Q454.87-27.59 455.3-29.13 455.73-30.66 456.67-32.07 457.61-33.47 459.1-34.68 460.59-35.89 462.7-36.77 464.81-37.65 467.58-38.15 470.35-38.65 473.89-38.65L473.89-38.65Q476.46-38.65 479.04-38.37 481.63-38.09 484.09-37.57 486.54-37.06 488.81-36.34 491.08-35.62 493.03-34.74L493.03-34.74 489.64-28.49Q488.03-29.2 486.17-29.8 484.32-30.4 482.29-30.83 480.27-31.27 478.1-31.53 475.94-31.79 473.7-31.79L473.7-31.79Q470.5-31.79 468.44-31.32 466.37-30.86 465.15-30.14 463.93-29.42 463.46-28.53 462.98-27.64 462.98-26.76L462.98-26.76Q462.98-25.05 464.52-23.96 466.06-22.88 469.21-22.88L469.21-22.88Q470.48-22.88 472.12-23.06 473.77-23.24 475.59-23.46 477.41-23.68 479.3-23.86 481.19-24.05 482.98-24.05L482.98-24.05Q486.34-24.05 488.94-23.29 491.54-22.53 493.3-21.13 495.06-19.73 495.96-17.74 496.87-15.75 496.87-13.28L496.87-13.28Q496.87-9.99 495.34-7.41 493.82-4.83 491-3.06 488.18-1.29 484.2-0.38 480.22 0.54 475.33 0.54L475.33 0.54Q472.11 0.54 469.03 0.13 465.96-0.27 463.14-1.01 460.32-1.76 457.77-2.8 455.22-3.83 453.04-5.08L453.04-5.08ZM508.83 0L508.83-23.39 501.87-23.39 501.87-28.81 508.83-28.81 508.83-37.77 516.05-37.77 516.05-28.81 523.01-28.81 523.01-23.39 516.05-23.39 516.05 0 508.83 0ZM529.43 0L529.43-28.81 536.66-28.81 536.66-24.66Q539.05-26.44 541.71-27.73 544.37-29.03 547.01-29.71L547.01-29.71 549.13-23.1Q544.96-22.68 541.8-21.23 538.63-19.78 536.66-17.14L536.66-17.14 536.66 0 529.43 0ZM553.13-14.5L553.13-14.5Q553.13-17.43 554.33-20.1 555.53-22.78 557.77-24.83 560.02-26.88 563.28-28.1 566.54-29.32 570.69-29.32L570.69-29.32Q574.81-29.32 578.12-28.09 581.43-26.86 583.74-24.71 586.04-22.56 587.28-19.65 588.51-16.75 588.51-13.43L588.51-13.43Q588.51-13.01 588.5-12.54 588.49-12.06 588.44-11.67L588.44-11.67 561.19-11.67Q561.65-10.38 562.69-9.3 563.73-8.23 565.29-7.45 566.85-6.67 568.91-6.24 570.96-5.81 573.45-5.81L573.45-5.81Q575.94-5.81 578.4-6.34 580.87-6.86 583.11-7.67L583.11-7.67 585.56-2.15Q584.14-1.49 582.69-0.99 581.23-0.49 579.66-0.16 578.08 0.17 576.36 0.34 574.64 0.51 572.74 0.51L572.74 0.51Q567.88 0.51 564.22-0.66 560.56-1.83 558.09-3.86 555.62-5.88 554.38-8.62 553.13-11.35 553.13-14.5ZM561.19-17.31L580.84-17.31Q580.45-18.51 579.64-19.54 578.82-20.58 577.6-21.35 576.38-22.12 574.76-22.56 573.15-23 571.22-23L571.22-23Q569.17-23 567.49-22.53 565.8-22.07 564.54-21.29 563.27-20.51 562.42-19.48 561.58-18.46 561.19-17.31L561.19-17.31ZM596.27 0L596.27-28.81 603.5-28.81 603.5-26.37Q606.38-28 609-28.66 611.63-29.32 614.14-29.32L614.14-29.32Q617.44-29.32 620.25-28.36 623.05-27.39 625.1-25.49 627.15-23.58 628.31-20.74 629.47-17.9 629.47-14.16L629.47-14.16 629.47 0 622.27 0 622.27-12.99Q622.27-15.36 621.6-17.22 620.93-19.09 619.67-20.37 618.41-21.66 616.62-22.33 614.83-23 612.6-23L612.6-23Q611.43-23 610.2-22.75 608.97-22.51 607.78-22.06 606.6-21.61 605.5-20.94 604.4-20.26 603.5-19.41L603.5-19.41 603.5 0 596.27 0ZM640.16 10.99L642.85 4.88Q644.22 5.37 645.63 5.7 647.05 6.03 648.38 6.24 649.71 6.45 650.93 6.53 652.15 6.62 653.1 6.62L653.1 6.62Q655.99 6.62 658.12 5.92 660.26 5.22 661.69 4.05 663.11 2.88 663.82 1.33 664.53-0.22 664.53-1.95L664.53-1.95 664.53-3.2Q663.6-2.56 662.36-1.98 661.11-1.39 659.62-0.95 658.13-0.51 656.46-0.24 654.79 0.02 653.01 0.02L653.01 0.02Q649.47 0.02 646.46-1.04 643.46-2.1 641.26-4.02 639.07-5.93 637.83-8.62 636.6-11.3 636.6-14.58L636.6-14.58Q636.6-17.92 637.89-20.64 639.19-23.36 641.47-25.29 643.75-27.22 646.88-28.27 650-29.32 653.67-29.32L653.67-29.32Q655.23-29.32 656.77-29.13 658.3-28.93 659.71-28.59 661.11-28.25 662.35-27.77 663.58-27.29 664.53-26.73L664.53-26.73 664.53-28.81 671.76-28.81 671.76-3.3Q671.76 0.63 670.56 3.66 669.36 6.69 667.06 8.75 664.75 10.82 661.33 11.88 657.91 12.94 653.5 12.94L653.5 12.94Q651.91 12.94 650.2 12.81 648.49 12.67 646.77 12.41 645.05 12.16 643.38 11.8 641.7 11.45 640.16 10.99L640.16 10.99ZM644.19-14.65L644.19-14.65Q644.19-12.92 644.89-11.39 645.58-9.86 646.88-8.73 648.17-7.59 650-6.95 651.83-6.3 654.13-6.3L654.13-6.3Q655.62-6.3 657.1-6.58 658.57-6.86 659.93-7.37 661.28-7.89 662.47-8.62 663.65-9.35 664.53-10.25L664.53-10.25 664.53-19.75Q663.43-20.63 662.21-21.24 660.99-21.85 659.72-22.24 658.45-22.63 657.16-22.81 655.86-23 654.64-23L654.64-23Q652.15-23 650.21-22.34 648.27-21.68 646.94-20.54 645.61-19.41 644.9-17.9 644.19-16.38 644.19-14.65ZM684.33 0L684.33-23.39 677.37-23.39 677.37-28.81 684.33-28.81 684.33-37.77 691.55-37.77 691.55-28.81 698.51-28.81 698.51-23.39 691.55-23.39 691.55 0 684.33 0ZM704.93 0L704.93-40.48 712.16-40.48 712.16-26.61Q714.43-27.86 717.22-28.59 720.02-29.32 723.09-29.32L723.09-29.32Q726.66-29.32 729.5-28.27 732.35-27.22 734.32-25.26 736.3-23.29 737.36-20.48 738.43-17.68 738.43-14.16L738.43-14.16 738.43 0 731.22 0 731.22-13.87Q731.22-15.92 730.57-17.61 729.91-19.31 728.64-20.53 727.37-21.75 725.55-22.42 723.73-23.1 721.43-23.1L721.43-23.1Q718.68-23.1 716.31-22.22 713.94-21.34 712.16-20L712.16-20 712.16 0 704.93 0ZM746.65-4.22L746.65-4.22Q746.65-5.2 747.05-6.07 747.46-6.93 748.21-7.58 748.97-8.23 750.05-8.59 751.12-8.96 752.46-8.96L752.46-8.96Q753.8-8.96 754.88-8.59 755.95-8.23 756.7-7.58 757.44-6.93 757.85-6.07 758.25-5.2 758.25-4.22L758.25-4.22Q758.25-3.25 757.85-2.38 757.44-1.51 756.7-0.88 755.95-0.24 754.88 0.13 753.8 0.51 752.46 0.51L752.46 0.51Q751.12 0.51 750.05 0.13 748.97-0.24 748.21-0.88 747.46-1.51 747.05-2.38 746.65-3.25 746.65-4.22ZM782.63-19.31L782.63-19.31Q782.63-23.39 784.17-26.92 785.71-30.44 788.63-33.04 791.54-35.64 795.76-37.13 799.97-38.62 805.29-38.62L805.29-38.62Q809.95-38.62 813.85-37.68 817.74-36.74 821.09-34.81L821.09-34.81 817.52-28.96Q816.52-29.61 815.21-30.13 813.91-30.64 812.43-30.99 810.95-31.35 809.38-31.54 807.8-31.74 806.27-31.74L806.27-31.74Q802.55-31.74 799.65-30.82 796.74-29.91 794.75-28.26 792.76-26.61 791.73-24.33 790.69-22.05 790.69-19.31L790.69-19.31Q790.69-16.48 791.76-14.11 792.84-11.74 794.88-10.02 796.92-8.3 799.86-7.34 802.8-6.37 806.51-6.37L806.51-6.37Q808.19-6.37 809.85-6.62 811.51-6.86 813.07-7.29 814.62-7.71 816.06-8.31 817.5-8.91 818.74-9.62L818.74-9.62 822.31-3.76Q819.18-1.76 815.08-0.62 810.98 0.51 806.36 0.51L806.36 0.51Q800.48 0.51 796.04-1.01 791.59-2.54 788.61-5.21 785.64-7.89 784.13-11.51 782.63-15.14 782.63-19.31ZM828.19-14.4L828.19-14.4Q828.19-17.5 829.44-20.21 830.7-22.92 833.03-24.95 835.36-26.98 838.67-28.15 841.98-29.32 846.11-29.32L846.11-29.32Q850.23-29.32 853.54-28.15 856.85-26.98 859.18-24.95 861.51-22.92 862.77-20.21 864.03-17.5 864.03-14.4L864.03-14.4Q864.03-11.3 862.77-8.59 861.51-5.88 859.18-3.86 856.85-1.83 853.54-0.66 850.23 0.51 846.11 0.51L846.11 0.51Q841.98 0.51 838.67-0.66 835.36-1.83 833.03-3.86 830.7-5.88 829.44-8.59 828.19-11.3 828.19-14.4ZM835.78-14.4L835.78-14.4Q835.78-12.67 836.48-11.12 837.17-9.57 838.5-8.39 839.83-7.2 841.75-6.51 843.67-5.81 846.11-5.81L846.11-5.81Q848.55-5.81 850.46-6.51 852.38-7.2 853.71-8.39 855.04-9.57 855.74-11.12 856.43-12.67 856.43-14.4L856.43-14.4Q856.43-16.14 855.74-17.7 855.04-19.26 853.71-20.45 852.38-21.63 850.46-22.33 848.55-23.02 846.11-23.02L846.11-23.02Q843.67-23.02 841.75-22.33 839.83-21.63 838.5-20.45 837.17-19.26 836.48-17.7 835.78-16.14 835.78-14.4ZM871.32 0L871.32-28.81 878.55-28.81 878.55-26.37Q881.43-28 884.06-28.66 886.68-29.32 889.2-29.32L889.2-29.32Q892.49-29.32 895.3-28.36 898.11-27.39 900.16-25.49 902.21-23.58 903.37-20.74 904.53-17.9 904.53-14.16L904.53-14.16 904.53 0 897.33 0 897.33-12.99Q897.33-15.36 896.65-17.22 895.98-19.09 894.73-20.37 893.47-21.66 891.67-22.33 889.88-23 887.66-23L887.66-23Q886.49-23 885.25-22.75 884.02-22.51 882.84-22.06 881.65-21.61 880.55-20.94 879.45-20.26 878.55-19.41L878.55-19.41 878.55 0 871.32 0ZM911.65-14.28L911.65-14.28Q911.65-17.72 912.95-20.5 914.24-23.27 916.52-25.23 918.81-27.2 921.94-28.26 925.08-29.32 928.74-29.32L928.74-29.32Q931.89-29.32 934.53-28.6 937.17-27.88 939.1-26.73L939.1-26.73 939.1-28.81 946.32-28.81 946.32 11.77 939.1 11.77 939.1-2.71Q938.14-2.05 936.92-1.46 935.7-0.88 934.31-0.44 932.92 0 931.39 0.26 929.87 0.51 928.3 0.51L928.3 0.51Q924.64 0.51 921.58-0.56 918.51-1.64 916.32-3.59 914.12-5.54 912.89-8.26 911.65-10.99 911.65-14.28ZM919.25-14.28L919.25-14.28Q919.25-12.55 919.94-11.01 920.64-9.47 921.94-8.31 923.25-7.15 925.09-6.48 926.94-5.81 929.23-5.81L929.23-5.81Q930.7-5.81 932.09-6.09 933.48-6.37 934.74-6.88 935.99-7.4 937.11-8.13 938.22-8.86 939.1-9.77L939.1-9.77 939.1-19.75Q936.87-21.51 934.52-22.25 932.16-23 929.7-23L929.7-23Q927.21-23 925.26-22.33 923.32-21.66 921.99-20.48 920.66-19.31 919.95-17.72 919.25-16.14 919.25-14.28ZM955.16-13.75L955.16-28.83 962.36-28.83 962.36-14.77Q962.36-12.77 962.8-11.12 963.24-9.47 964.3-8.3 965.36-7.13 967.13-6.48 968.9-5.83 971.54-5.83L971.54-5.83Q972.78-5.83 974.07-6.1 975.35-6.37 976.52-6.85 977.69-7.32 978.7-7.98 979.72-8.64 980.45-9.42L980.45-9.42 980.45-28.83 987.68-28.83 987.68 0 980.45 0 980.45-2.47Q977.79-0.88 975.1-0.2 972.42 0.49 970 0.49L970 0.49Q966.05 0.49 963.23-0.46 960.41-1.42 958.61-3.23 956.82-5.05 955.99-7.7 955.16-10.35 955.16-13.75L955.16-13.75ZM995.49-14.5L995.49-14.5Q995.49-17.43 996.68-20.1 997.88-22.78 1000.13-24.83 1002.37-26.88 1005.63-28.1 1008.89-29.32 1013.04-29.32L1013.04-29.32Q1017.17-29.32 1020.47-28.09 1023.78-26.86 1026.09-24.71 1028.4-22.56 1029.63-19.65 1030.86-16.75 1030.86-13.43L1030.86-13.43Q1030.86-13.01 1030.85-12.54 1030.84-12.06 1030.79-11.67L1030.79-11.67 1003.54-11.67Q1004.01-10.38 1005.04-9.3 1006.08-8.23 1007.64-7.45 1009.21-6.67 1011.26-6.24 1013.31-5.81 1015.8-5.81L1015.8-5.81Q1018.29-5.81 1020.76-6.34 1023.22-6.86 1025.47-7.67L1025.47-7.67 1027.91-2.15Q1026.49-1.49 1025.04-0.99 1023.59-0.49 1022.01-0.16 1020.44 0.17 1018.72 0.34 1017 0.51 1015.09 0.51L1015.09 0.51Q1010.23 0.51 1006.57-0.66 1002.91-1.83 1000.44-3.86 997.98-5.88 996.73-8.62 995.49-11.35 995.49-14.5ZM1003.54-17.31L1023.2-17.31Q1022.81-18.51 1021.99-19.54 1021.17-20.58 1019.95-21.35 1018.73-22.12 1017.12-22.56 1015.51-23 1013.58-23L1013.58-23Q1011.53-23 1009.84-22.53 1008.16-22.07 1006.89-21.29 1005.62-20.51 1004.78-19.48 1003.93-18.46 1003.54-17.31L1003.54-17.31ZM1038.62 0L1038.62-28.81 1045.85-28.81 1045.85-24.66Q1048.24-26.44 1050.9-27.73 1053.57-29.03 1056.2-29.71L1056.2-29.71 1058.33-23.1Q1054.15-22.68 1050.99-21.23 1047.83-19.78 1045.85-17.14L1045.85-17.14 1045.85 0 1038.62 0ZM1084.64 0L1084.64-23.39 1077.68-23.39 1077.68-28.81 1084.64-28.81 1084.64-37.77 1091.87-37.77 1091.87-28.81 1098.82-28.81 1098.82-23.39 1091.87-23.39 1091.87 0 1084.64 0ZM1105.24 0L1105.24-40.48 1112.47-40.48 1112.47-26.61Q1114.74-27.86 1117.53-28.59 1120.33-29.32 1123.41-29.32L1123.41-29.32Q1126.97-29.32 1129.82-28.27 1132.66-27.22 1134.64-25.26 1136.61-23.29 1137.68-20.48 1138.74-17.68 1138.74-14.16L1138.74-14.16 1138.74 0 1131.54 0 1131.54-13.87Q1131.54-15.92 1130.88-17.61 1130.22-19.31 1128.95-20.53 1127.68-21.75 1125.86-22.42 1124.04-23.1 1121.75-23.1L1121.75-23.1Q1118.99-23.1 1116.62-22.22 1114.25-21.34 1112.47-20L1112.47-20 1112.47 0 1105.24 0ZM1145.45-14.5L1145.45-14.5Q1145.45-17.43 1146.65-20.1 1147.84-22.78 1150.09-24.83 1152.33-26.88 1155.59-28.1 1158.85-29.32 1163-29.32L1163-29.32Q1167.13-29.32 1170.44-28.09 1173.75-26.86 1176.05-24.71 1178.36-22.56 1179.59-19.65 1180.83-16.75 1180.83-13.43L1180.83-13.43Q1180.83-13.01 1180.81-12.54 1180.8-12.06 1180.75-11.67L1180.75-11.67 1153.51-11.67Q1153.97-10.38 1155.01-9.3 1156.05-8.23 1157.61-7.45 1159.17-6.67 1161.22-6.24 1163.27-5.81 1165.76-5.81L1165.76-5.81Q1168.25-5.81 1170.72-6.34 1173.18-6.86 1175.43-7.67L1175.43-7.67 1177.87-2.15Q1176.46-1.49 1175-0.99 1173.55-0.49 1171.98-0.16 1170.4 0.17 1168.68 0.34 1166.96 0.51 1165.05 0.51L1165.05 0.51Q1160.2 0.51 1156.53-0.66 1152.87-1.83 1150.41-3.86 1147.94-5.88 1146.69-8.62 1145.45-11.35 1145.45-14.5ZM1153.51-17.31L1173.16-17.31Q1172.77-18.51 1171.95-19.54 1171.13-20.58 1169.91-21.35 1168.69-22.12 1167.08-22.56 1165.47-23 1163.54-23L1163.54-23Q1161.49-23 1159.81-22.53 1158.12-22.07 1156.85-21.29 1155.58-20.51 1154.74-19.48 1153.9-18.46 1153.51-17.31L1153.51-17.31ZM1217.59 0L1217.59-31.37 1203.5-31.37 1203.5-38.16 1239.41-38.16 1239.41-31.37 1225.33-31.37 1225.33 0 1217.59 0ZM1250.57-32.74L1250.57-32.74Q1249.49-32.74 1248.63-33.04 1247.76-33.35 1247.15-33.87 1246.54-34.4 1246.21-35.1 1245.88-35.79 1245.88-36.57L1245.88-36.57Q1245.88-37.38 1246.21-38.07 1246.54-38.77 1247.15-39.28 1247.76-39.79 1248.63-40.1 1249.49-40.41 1250.57-40.41L1250.57-40.41Q1251.67-40.41 1252.53-40.1 1253.4-39.79 1254.01-39.28 1254.62-38.77 1254.95-38.07 1255.28-37.38 1255.28-36.57L1255.28-36.57Q1255.28-35.79 1254.95-35.1 1254.62-34.4 1254.01-33.87 1253.4-33.35 1252.53-33.04 1251.67-32.74 1250.57-32.74ZM1246.96 0L1246.96-28.81 1254.18-28.81 1254.18 0 1246.96 0ZM1267.78 0L1267.78-23.39 1260.82-23.39 1260.82-28.81 1267.78-28.81 1267.78-37.77 1275.01-37.77 1275.01-28.81 1281.96-28.81 1281.96-23.39 1275.01-23.39 1275.01 0 1267.78 0ZM1287.01-9.08L1287.01-9.08Q1287.01-11.16 1287.92-12.87 1288.82-14.58 1290.63-15.81 1292.43-17.04 1295.13-17.71 1297.83-18.38 1301.42-18.38L1301.42-18.38Q1304.08-18.38 1307.02-17.99 1309.96-17.6 1313.09-16.8L1313.09-16.8Q1312.97-18.16 1312.26-19.32 1311.55-20.48 1310.29-21.33 1309.04-22.17 1307.27-22.63 1305.5-23.1 1303.25-23.1L1303.25-23.1Q1302.03-23.1 1300.56-22.95 1299.1-22.8 1297.54-22.51 1295.97-22.22 1294.45-21.78 1292.92-21.34 1291.6-20.73L1291.6-20.73 1289.41-26.66Q1291.04-27.25 1292.91-27.73 1294.78-28.22 1296.73-28.58 1298.68-28.93 1300.64-29.13 1302.59-29.32 1304.42-29.32L1304.42-29.32Q1312.5-29.32 1316.43-25.2 1320.36-21.07 1320.36-12.55L1320.36-12.55 1320.36 0 1313.14 0 1313.14-2.71Q1312.01-2.05 1310.68-1.46 1309.35-0.88 1307.79-0.44 1306.23 0 1304.43 0.26 1302.64 0.51 1300.64 0.51L1300.64 0.51Q1297.27 0.51 1294.72-0.22 1292.17-0.95 1290.46-2.25 1288.75-3.54 1287.88-5.29 1287.01-7.03 1287.01-9.08ZM1294.63-9.33L1294.63-9.33Q1294.63-8.62 1295-7.97 1295.36-7.32 1296.17-6.82 1296.98-6.32 1298.23-6.02 1299.49-5.71 1301.27-5.71L1301.27-5.71Q1303.18-5.71 1304.96-6.05 1306.74-6.4 1308.28-6.96 1309.82-7.52 1311.06-8.25 1312.31-8.98 1313.14-9.77L1313.14-9.77 1313.14-11.04Q1311.48-11.5 1309.85-11.82 1308.23-12.13 1306.75-12.32 1305.28-12.5 1303.97-12.57 1302.66-12.65 1301.69-12.65L1301.69-12.65Q1299.66-12.65 1298.32-12.38 1296.98-12.11 1296.15-11.66 1295.32-11.21 1294.97-10.6 1294.63-9.99 1294.63-9.33ZM1329.91 0L1329.91-28.81 1337.13-28.81 1337.13-26.37Q1340.01-28 1342.64-28.66 1345.26-29.32 1347.78-29.32L1347.78-29.32Q1351.07-29.32 1353.88-28.36 1356.69-27.39 1358.74-25.49 1360.79-23.58 1361.95-20.74 1363.11-17.9 1363.11-14.16L1363.11-14.16 1363.11 0 1355.91 0 1355.91-12.99Q1355.91-15.36 1355.24-17.22 1354.57-19.09 1353.31-20.37 1352.05-21.66 1350.26-22.33 1348.46-23 1346.24-23L1346.24-23Q1345.07-23 1343.84-22.75 1342.6-22.51 1341.42-22.06 1340.23-21.61 1339.14-20.94 1338.04-20.26 1337.13-19.41L1337.13-19.41 1337.13 0 1329.91 0Z" opacity="1" transform="matrix(1,0,0,1,0,0)" fill="#ffffff" class="slogan-text-1" data-fill-palette-color="secondary" id="text-1"></path></svg></g></svg></g></svg></g></svg></g><g transform="matrix(1,0,0,1,119.76949021255673,0)"><svg viewBox="0 0 155.98101957488652 83.99058940564592" height="83.99058940564592" width="155.98101957488652"><g><svg xmlns="http://www.w3.org/2000/svg" xmlns:xlink="http://www.w3.org/1999/xlink" version="1.1" x="0" y="0" viewBox="5 25.768999099731445 90 48.462005615234375" enable-background="new 0 0 100 100" xml:space="preserve" height="83.99058940564592" width="155.98101957488652" class="icon-icon-0" data-fill-palette-color="accent" id="icon-0"><g fill="#ffffff" data-fill-palette-color="accent"><rect x="5" y="43.077" fill="#ffffff" width="3.462" height="13.846" data-fill-palette-color="accent"></rect><rect x="11.923" y="32.692" fill="#ffffff" width="3.462" height="34.615" data-fill-palette-color="accent"></rect><rect x="18.846" y="25.769" fill="#ffffff" width="6.924" height="48.462" data-fill-palette-color="accent"></rect><rect x="29.23" y="46.539" fill="#ffffff" width="41.539" height="6.923" data-fill-palette-color="accent"></rect><rect x="91.538" y="43.077" fill="#ffffff" width="3.462" height="13.846" data-fill-palette-color="accent"></rect><rect x="84.615" y="32.692" fill="#ffffff" width="3.462" height="34.615" data-fill-palette-color="accent"></rect><rect x="74.23" y="25.769" fill="#ffffff" width="6.924" height="48.462" data-fill-palette-color="accent"></rect></g></svg></g></svg></g><g></g></svg></g><defs></defs></svg><rect width="395.52" height="171.51480408903728" fill="none" stroke="none" visibility="hidden"></rect></g></svg></g></svg>